<svg width="720" height="240" viewBox="0 0 720 240" fill="none" xmlns="http://www.w3.org/2000/svg">
  <rect width="720" height="240" rx="32" fill="#071827" />
  <defs>
    <linearGradient id="paint0" x1="0" y1="0" x2="720" y2="240" gradientUnits="userSpaceOnUse">
      <stop stop-color="#E12B3D" />
      <stop offset="1" stop-color="#F8B84C" />
    </linearGradient>
  </defs>
  <path d="M108 164H68V76H108V164Z" fill="#F8F9FA" />
  <path d="M190.5 164H150.5V76H190.5C212.375 76 226.5 88.625 226.5 109.5C226.5 130.375 212.375 164 190.5 164ZM170.5 148H190.5C203.339 148 210.5 137.832 210.5 109.5C210.5 81.168 203.339 76 190.5 76H170.5V148Z" fill="#F8F9FA" />
  <path d="M282 164H242V76H282V164Z" fill="#F8F9FA" />
  <path d="M327.07 120.92L365.82 115.24L325.39 96.62L346.39 76H362.05L332.31 102.69L374.56 109.31L327.07 120.92Z" fill="url(#paint0)" />
  <path d="M450 164H410V76H450V164Z" fill="#F8F9FA" />
  <path d="M538 164H498V76H538V164Z" fill="#F8F9FA" />
</svg>
